<svg width="30" height="30" viewBox="0 0 30 30" fill="none" xmlns="http://www.w3.org/2000/svg">
<path fill-rule="evenodd" clip-rule="evenodd" d="M8.3088 8.20088H16.6257C17.3282 8.20088 17.9135 8.78243 17.9135 9.47944C17.9135 10.1765 17.3282 10.758 16.6257 10.758H8.3088V8.20088ZM8.3088 18.3123H18.4996C19.2021 18.3123 19.7882 18.893 19.7882 19.5908C19.7882 20.2879 19.2021 20.8686 18.4996 20.8686H8.3088V18.3123ZM5 26.0992V3H13.1989C15.747 3 17.8844 3.55184 19.671 4.68523C21.4276 5.78975 22.7744 7.24238 23.6532 9.0142C24.5319 10.7869 25 12.6461 25 14.564C25 16.5107 24.561 18.37 23.6532 20.1138C22.7744 21.8856 21.4276 23.3095 19.671 24.4427C17.9135 25.5464 15.747 26.128 13.1989 26.128H6.52306C6.08326 26.0992 5.02909 26.0992 5 26.0992ZM8.3088 13.2566H14.0776C14.7809 13.2566 15.3662 13.8373 15.3662 14.5351C15.3662 15.2322 14.7809 15.8137 14.0776 15.8137H8.3088V13.2566Z" fill="white"/>
</svg>
