<svg width="606" height="606" viewBox="0 0 606 606" fill="none" xmlns="http://www.w3.org/2000/svg">
<path d="M18.3756 358.094C-26.6341 123.346 14.0325 63.3852 248.781 18.3755C483.53 -26.6341 543.49 14.0325 588.5 248.781C633.509 483.53 592.843 543.49 358.094 588.5C123.346 633.509 63.3852 592.843 18.3756 358.094Z" fill="#1F2937"/>
<mask id="mask0_403_303" style="mask-type:alpha" maskUnits="userSpaceOnUse" x="2" y="2" width="603" height="603">
<path d="M18.3756 358.094C-26.6341 123.346 14.0325 63.3852 248.781 18.3755C483.53 -26.6341 543.49 14.0325 588.5 248.781C633.509 483.53 592.843 543.49 358.094 588.5C123.346 633.509 63.3852 592.843 18.3756 358.094Z" fill="#0E2422"/>
</mask>
<g mask="url(#mask0_403_303)">
<path d="M523.728 171.427C525.791 169.577 524.495 166.135 521.736 166.135H424.068C421.77 166.135 420.325 163.634 421.457 161.616L506.116 10.6246C507.203 8.68587 505.914 6.26611 503.712 6.1125L314.583 3.01164C313.384 2.92797 312.251 3.57492 311.705 4.65554L188.666 237.803C187.646 239.818 189.096 242.208 191.337 242.208H290.636C292.874 242.208 294.324 244.593 293.31 246.608L179.953 471.784C178.452 474.765 182.142 477.64 184.62 475.419L523.728 171.427Z" fill="#F3F4F6"/>
<path d="M500.086 173.23C502.037 171.342 500.713 168.017 498.009 168.017H403.757C401.595 168.017 400.143 165.779 401.007 163.779L471.102 3.54728C471.966 1.54715 470.599 -1 468.438 -1H281.783C280.59 -1 279.425 0.0227985 278.948 1.12676L175.268 239.099C174.404 241.099 175.857 243.337 178.018 243.337H275.153C277.315 243.337 278.767 245.575 277.903 247.575L179.427 475.52C178.117 478.553 181.887 481.206 184.253 478.915L500.086 173.23Z" fill="#FACC15"/>
</g>
</svg>
